<?xml version="1.0" encoding="UTF-8" standalone="no"?>
<!-- Created with Inkscape (http://www.inkscape.org/) -->

<svg
   width="210mm"
   height="297mm"
   viewBox="0 0 210 297"
   version="1.1"
   id="svg1"
   inkscape:version="1.4 (86a8ad7, 2024-10-11)"
   sodipodi:docname="drawing.svg"
   xmlns:inkscape="http://www.inkscape.org/namespaces/inkscape"
   xmlns:sodipodi="http://sodipodi.sourceforge.net/DTD/sodipodi-0.dtd"
   xmlns="http://www.w3.org/2000/svg"
   xmlns:svg="http://www.w3.org/2000/svg">
  <sodipodi:namedview
     id="namedview1"
     pagecolor="#ffffff"
     bordercolor="#000000"
     borderopacity="0.25"
     inkscape:showpageshadow="2"
     inkscape:pageopacity="0.0"
     inkscape:pagecheckerboard="0"
     inkscape:deskcolor="#d1d1d1"
     inkscape:document-units="mm"
     inkscape:zoom="0.71891835"
     inkscape:cx="397.12437"
     inkscape:cy="561.25984"
     inkscape:window-width="1920"
     inkscape:window-height="1009"
     inkscape:window-x="-8"
     inkscape:window-y="-8"
     inkscape:window-maximized="1"
     inkscape:current-layer="layer1" />
  <defs
     id="defs1" />
  <g
     inkscape:label="Layer 1"
     inkscape:groupmode="layer"
     id="layer1">
    <path
       style="fill:#000000;stroke-width:0.264583"
       id="path33"
       d="m 136.82711,97.402853 c -4.15914,4.655177 -8.44798,9.192617 -12.70204,13.760857 -3.87577,4.19581 -7.71113,8.43273 -11.28368,12.89251 -1.42794,1.78256 -3.08055,3.97709 -4.46883,5.8017 -3.78761,5.25185 -7.6436,10.44796 -11.845425,15.37674 -3.041402,3.50882 -6.24899,6.86592 -9.403869,10.27098 -0.938763,0.94902 -1.836287,1.93438 -2.709643,2.9431 -0.521909,0.60279 -0.288102,0.41525 -0.639799,0.67097 -2.122548,1.8694 0.521187,4.87114 2.643735,3.00174 v 0 c 1.304607,-1.20721 2.32823,-2.69108 3.64001,-3.89743 3.192061,-3.44602 6.438197,-6.84288 9.514123,-10.39506 4.247418,-4.9868 8.157158,-10.23455 11.984258,-15.5491 1.3289,-1.74683 3.0086,-3.97643 4.37508,-5.68318 3.52002,-4.39659 7.30163,-8.57127 11.12131,-12.70702 4.26494,-4.57994 8.5646,-9.12915 12.73451,-13.79614 1.9026,-2.092847 -1.05714,-4.783519 -2.95974,-2.690667 z" />
    <path
       style="fill:#000000;stroke-width:0.264583"
       id="path36"
       d="m 76.210331,100.63195 c 2.066539,0 4.13308,0 6.199621,0 1.63616,0 3.272319,0 4.908479,0 2.828406,0 2.828406,-3.999966 0,-3.999966 v 0 c -1.63616,0 -3.272319,0 -4.908479,0 -2.066541,0 -4.133082,0 -6.199621,0 -2.828409,0 -2.828409,3.999966 0,3.999966 z" />
    <path
       style="fill:#000000;stroke-width:0.264583"
       id="path38"
       d="m 73.716623,100.78264 c 1.87154,1.52836 3.772423,3.01938 5.634775,4.55918 1.993355,1.7482 4.184904,3.23329 6.360631,4.73841 2.443811,1.65958 4.883311,3.32561 7.331916,4.97814 1.994562,1.43559 4.102063,2.69999 6.161056,4.03742 1.602349,0.97158 3.198399,1.95416 4.812289,2.90653 1.14316,0.72348 2.29182,1.43797 3.42761,2.17379 0.94613,0.60938 1.85188,1.2709 2.74414,1.95449 0.28598,0.2648 0.73103,0.39738 0.99669,0.68735 2.2036,1.77313 4.7112,-1.34323 2.50759,-3.11637 v 0 c -0.34584,-0.26582 -0.69901,-0.52813 -1.07556,-0.7492 -0.9772,-0.74433 -1.96612,-1.46933 -3.00016,-2.13472 -1.18295,-0.76432 -2.37774,-1.50856 -3.56808,-2.26061 -1.56541,-0.92296 -3.11202,-1.87769 -4.66764,-2.817 -2.040375,-1.32201 -4.12494,-2.57732 -6.100827,-3.99757 -2.436254,-1.64309 -4.862232,-3.30147 -7.293496,-4.95189 -2.08221,-1.44021 -4.183002,-2.8562 -6.088319,-4.53232 -1.844686,-1.52329 -3.723537,-3.003326 -5.57947,-4.512637 -2.147485,-1.840703 -4.750633,1.196301 -2.603145,3.037007 z" />
    <path
       style="fill:#000000;stroke-width:0.264583"
       id="path39"
       d="m 86.942884,100.02048 c 1.152226,1.06735 2.315337,2.12304 3.497008,3.15899 1.506453,1.31649 2.941461,2.71026 4.421526,4.05661 1.66905,1.39745 3.458189,2.63682 5.281342,3.82209 1.29808,0.84322 2.53784,1.77113 3.83573,2.61378 1.66255,1.00686 3.29622,2.06042 4.96437,3.05782 1.09463,0.65382 2.15502,1.36195 3.231,2.04501 0.63085,0.45516 1.2582,0.9143 1.89855,1.3562 0.45452,0.36434 0.86351,0.77645 1.29044,1.17157 0.30045,0.22537 0.59647,0.44614 0.90537,0.65868 2.34819,1.57668 4.57794,-1.74416 2.22976,-3.32083 v 0 c -0.1279,-0.0797 -0.35848,-0.30891 -0.44581,-0.29881 -0.5725,-0.49593 -1.08375,-1.06484 -1.70793,-1.5028 -0.68423,-0.47215 -1.35078,-0.96783 -2.03213,-1.4445 -1.1071,-0.69704 -2.19145,-1.43106 -3.31761,-2.09826 -1.62929,-0.97275 -3.22263,-2.0041 -4.84713,-2.985 -1.29914,-0.83183 -2.5248,-1.77412 -3.82446,-2.60647 -1.64308,-1.06809 -3.256823,-2.18034 -4.770526,-3.42795 -1.498906,-1.36231 -2.950866,-2.77407 -4.476776,-4.10592 -1.207344,-1.056753 -2.390233,-2.138978 -3.572005,-3.223069 -2.172843,-1.810702 -4.733562,1.26216 -2.560719,3.072859 z" />
  </g>
</svg>
